<mxfile host="app.diagrams.net" modified="2024-03-22T08:14:50.492Z" agent="Mozilla/5.0 (Windows NT 10.0; Win64; x64; rv:123.0) Gecko/20100101 Firefox/123.0" etag="8WuEjesXW6f8f8_WWx53" version="24.0.7" type="github">
  <diagram name="Page-1" id="sAp3SEBh4W0fje_LopWF">
    <mxGraphModel dx="1195" dy="645" grid="1" gridSize="10" guides="1" tooltips="1" connect="1" arrows="1" fold="1" page="1" pageScale="1" pageWidth="850" pageHeight="1100" math="0" shadow="0">
      <root>
        <mxCell id="0" />
        <mxCell id="1" parent="0" />
        <mxCell id="NOnLoxw8k5Br9pSF4aaw-82" style="edgeStyle=orthogonalEdgeStyle;rounded=0;orthogonalLoop=1;jettySize=auto;html=1;entryX=0.5;entryY=0;entryDx=0;entryDy=0;" edge="1" parent="1" source="NOnLoxw8k5Br9pSF4aaw-1" target="NOnLoxw8k5Br9pSF4aaw-15">
          <mxGeometry relative="1" as="geometry" />
        </mxCell>
        <mxCell id="NOnLoxw8k5Br9pSF4aaw-1" value="" style="rounded=0;whiteSpace=wrap;html=1;fillColor=#fad9d5;strokeColor=#ae4132;" vertex="1" parent="1">
          <mxGeometry x="10" y="10" width="70" height="50" as="geometry" />
        </mxCell>
        <mxCell id="NOnLoxw8k5Br9pSF4aaw-2" value="&lt;font style=&quot;font-size: 14px;&quot;&gt;Task1(5)&lt;/font&gt;" style="text;strokeColor=none;fillColor=none;html=1;fontSize=24;fontStyle=1;verticalAlign=middle;align=center;" vertex="1" parent="1">
          <mxGeometry x="10" y="10" width="70" height="40" as="geometry" />
        </mxCell>
        <mxCell id="NOnLoxw8k5Br9pSF4aaw-3" value="" style="shape=flexArrow;endArrow=classic;html=1;rounded=0;fillColor=#fad9d5;strokeColor=#ae4132;" edge="1" parent="1">
          <mxGeometry width="50" height="50" relative="1" as="geometry">
            <mxPoint x="80" y="30.000000000000007" as="sourcePoint" />
            <mxPoint x="110" y="30.29" as="targetPoint" />
          </mxGeometry>
        </mxCell>
        <mxCell id="NOnLoxw8k5Br9pSF4aaw-4" value="" style="rounded=0;whiteSpace=wrap;html=1;fillColor=#fad9d5;strokeColor=#ae4132;" vertex="1" parent="1">
          <mxGeometry x="110" y="10" width="70" height="50" as="geometry" />
        </mxCell>
        <mxCell id="NOnLoxw8k5Br9pSF4aaw-5" value="&lt;font style=&quot;font-size: 14px;&quot;&gt;print(5)&lt;/font&gt;" style="text;strokeColor=none;fillColor=none;html=1;fontSize=24;fontStyle=1;verticalAlign=middle;align=center;" vertex="1" parent="1">
          <mxGeometry x="110" y="10" width="70" height="40" as="geometry" />
        </mxCell>
        <mxCell id="NOnLoxw8k5Br9pSF4aaw-83" style="edgeStyle=orthogonalEdgeStyle;rounded=0;orthogonalLoop=1;jettySize=auto;html=1;entryX=0.5;entryY=0;entryDx=0;entryDy=0;" edge="1" parent="1" source="NOnLoxw8k5Br9pSF4aaw-14" target="NOnLoxw8k5Br9pSF4aaw-21">
          <mxGeometry relative="1" as="geometry" />
        </mxCell>
        <mxCell id="NOnLoxw8k5Br9pSF4aaw-14" value="" style="rounded=0;whiteSpace=wrap;html=1;fillColor=#fad9d5;strokeColor=#ae4132;" vertex="1" parent="1">
          <mxGeometry x="10" y="80" width="70" height="50" as="geometry" />
        </mxCell>
        <mxCell id="NOnLoxw8k5Br9pSF4aaw-15" value="&lt;font style=&quot;font-size: 14px;&quot;&gt;Task1(4)&lt;/font&gt;" style="text;strokeColor=none;fillColor=none;html=1;fontSize=24;fontStyle=1;verticalAlign=middle;align=center;" vertex="1" parent="1">
          <mxGeometry x="10" y="80" width="70" height="40" as="geometry" />
        </mxCell>
        <mxCell id="NOnLoxw8k5Br9pSF4aaw-16" value="" style="shape=flexArrow;endArrow=classic;html=1;rounded=0;fillColor=#fad9d5;strokeColor=#ae4132;" edge="1" parent="1">
          <mxGeometry width="50" height="50" relative="1" as="geometry">
            <mxPoint x="80" y="100" as="sourcePoint" />
            <mxPoint x="110" y="100.28999999999999" as="targetPoint" />
          </mxGeometry>
        </mxCell>
        <mxCell id="NOnLoxw8k5Br9pSF4aaw-17" value="" style="rounded=0;whiteSpace=wrap;html=1;fillColor=#fad9d5;strokeColor=#ae4132;" vertex="1" parent="1">
          <mxGeometry x="110" y="80" width="70" height="50" as="geometry" />
        </mxCell>
        <mxCell id="NOnLoxw8k5Br9pSF4aaw-18" value="&lt;font style=&quot;font-size: 14px;&quot;&gt;print(4)&lt;/font&gt;" style="text;strokeColor=none;fillColor=none;html=1;fontSize=24;fontStyle=1;verticalAlign=middle;align=center;" vertex="1" parent="1">
          <mxGeometry x="110" y="80" width="70" height="40" as="geometry" />
        </mxCell>
        <mxCell id="NOnLoxw8k5Br9pSF4aaw-84" style="edgeStyle=orthogonalEdgeStyle;rounded=0;orthogonalLoop=1;jettySize=auto;html=1;entryX=0.5;entryY=0;entryDx=0;entryDy=0;" edge="1" parent="1" source="NOnLoxw8k5Br9pSF4aaw-20" target="NOnLoxw8k5Br9pSF4aaw-27">
          <mxGeometry relative="1" as="geometry" />
        </mxCell>
        <mxCell id="NOnLoxw8k5Br9pSF4aaw-20" value="" style="rounded=0;whiteSpace=wrap;html=1;fillColor=#fad9d5;strokeColor=#ae4132;" vertex="1" parent="1">
          <mxGeometry x="10" y="150" width="70" height="50" as="geometry" />
        </mxCell>
        <mxCell id="NOnLoxw8k5Br9pSF4aaw-21" value="&lt;font style=&quot;font-size: 14px;&quot;&gt;Task1(3)&lt;/font&gt;" style="text;strokeColor=none;fillColor=none;html=1;fontSize=24;fontStyle=1;verticalAlign=middle;align=center;" vertex="1" parent="1">
          <mxGeometry x="10" y="150" width="70" height="40" as="geometry" />
        </mxCell>
        <mxCell id="NOnLoxw8k5Br9pSF4aaw-22" value="" style="shape=flexArrow;endArrow=classic;html=1;rounded=0;fillColor=#fad9d5;strokeColor=#ae4132;" edge="1" parent="1">
          <mxGeometry width="50" height="50" relative="1" as="geometry">
            <mxPoint x="80" y="170" as="sourcePoint" />
            <mxPoint x="110" y="170.29" as="targetPoint" />
          </mxGeometry>
        </mxCell>
        <mxCell id="NOnLoxw8k5Br9pSF4aaw-23" value="" style="rounded=0;whiteSpace=wrap;html=1;fillColor=#fad9d5;strokeColor=#ae4132;" vertex="1" parent="1">
          <mxGeometry x="110" y="150" width="70" height="50" as="geometry" />
        </mxCell>
        <mxCell id="NOnLoxw8k5Br9pSF4aaw-24" value="&lt;font style=&quot;font-size: 14px;&quot;&gt;print(3)&lt;/font&gt;" style="text;strokeColor=none;fillColor=none;html=1;fontSize=24;fontStyle=1;verticalAlign=middle;align=center;" vertex="1" parent="1">
          <mxGeometry x="110" y="150" width="70" height="40" as="geometry" />
        </mxCell>
        <mxCell id="NOnLoxw8k5Br9pSF4aaw-85" style="edgeStyle=orthogonalEdgeStyle;rounded=0;orthogonalLoop=1;jettySize=auto;html=1;" edge="1" parent="1" source="NOnLoxw8k5Br9pSF4aaw-26" target="NOnLoxw8k5Br9pSF4aaw-33">
          <mxGeometry relative="1" as="geometry" />
        </mxCell>
        <mxCell id="NOnLoxw8k5Br9pSF4aaw-26" value="" style="rounded=0;whiteSpace=wrap;html=1;fillColor=#fad9d5;strokeColor=#ae4132;" vertex="1" parent="1">
          <mxGeometry x="10" y="220" width="70" height="50" as="geometry" />
        </mxCell>
        <mxCell id="NOnLoxw8k5Br9pSF4aaw-27" value="&lt;font style=&quot;font-size: 14px;&quot;&gt;Task1(2)&lt;/font&gt;" style="text;strokeColor=none;fillColor=none;html=1;fontSize=24;fontStyle=1;verticalAlign=middle;align=center;" vertex="1" parent="1">
          <mxGeometry x="10" y="220" width="70" height="40" as="geometry" />
        </mxCell>
        <mxCell id="NOnLoxw8k5Br9pSF4aaw-28" value="" style="shape=flexArrow;endArrow=classic;html=1;rounded=0;fillColor=#fad9d5;strokeColor=#ae4132;" edge="1" parent="1">
          <mxGeometry width="50" height="50" relative="1" as="geometry">
            <mxPoint x="80" y="240.00000000000006" as="sourcePoint" />
            <mxPoint x="110" y="240.29000000000002" as="targetPoint" />
          </mxGeometry>
        </mxCell>
        <mxCell id="NOnLoxw8k5Br9pSF4aaw-29" value="" style="rounded=0;whiteSpace=wrap;html=1;fillColor=#fad9d5;strokeColor=#ae4132;" vertex="1" parent="1">
          <mxGeometry x="110" y="220" width="70" height="50" as="geometry" />
        </mxCell>
        <mxCell id="NOnLoxw8k5Br9pSF4aaw-30" value="&lt;font style=&quot;font-size: 14px;&quot;&gt;print(2)&lt;/font&gt;" style="text;strokeColor=none;fillColor=none;html=1;fontSize=24;fontStyle=1;verticalAlign=middle;align=center;" vertex="1" parent="1">
          <mxGeometry x="110" y="220" width="70" height="40" as="geometry" />
        </mxCell>
        <mxCell id="NOnLoxw8k5Br9pSF4aaw-87" style="edgeStyle=orthogonalEdgeStyle;rounded=0;orthogonalLoop=1;jettySize=auto;html=1;" edge="1" parent="1" source="NOnLoxw8k5Br9pSF4aaw-32" target="NOnLoxw8k5Br9pSF4aaw-39">
          <mxGeometry relative="1" as="geometry" />
        </mxCell>
        <mxCell id="NOnLoxw8k5Br9pSF4aaw-32" value="" style="rounded=0;whiteSpace=wrap;html=1;fillColor=#fad9d5;strokeColor=#ae4132;" vertex="1" parent="1">
          <mxGeometry x="10" y="290" width="70" height="50" as="geometry" />
        </mxCell>
        <mxCell id="NOnLoxw8k5Br9pSF4aaw-33" value="&lt;font style=&quot;font-size: 14px;&quot;&gt;Task1(1)&lt;/font&gt;" style="text;strokeColor=none;fillColor=none;html=1;fontSize=24;fontStyle=1;verticalAlign=middle;align=center;" vertex="1" parent="1">
          <mxGeometry x="10" y="290" width="70" height="40" as="geometry" />
        </mxCell>
        <mxCell id="NOnLoxw8k5Br9pSF4aaw-34" value="" style="shape=flexArrow;endArrow=classic;html=1;rounded=0;fillColor=#fad9d5;strokeColor=#ae4132;" edge="1" parent="1">
          <mxGeometry width="50" height="50" relative="1" as="geometry">
            <mxPoint x="80" y="310.00000000000006" as="sourcePoint" />
            <mxPoint x="110" y="310.29" as="targetPoint" />
          </mxGeometry>
        </mxCell>
        <mxCell id="NOnLoxw8k5Br9pSF4aaw-35" value="" style="rounded=0;whiteSpace=wrap;html=1;fillColor=#fad9d5;strokeColor=#ae4132;" vertex="1" parent="1">
          <mxGeometry x="110" y="290" width="70" height="50" as="geometry" />
        </mxCell>
        <mxCell id="NOnLoxw8k5Br9pSF4aaw-36" value="&lt;font style=&quot;font-size: 14px;&quot;&gt;print(1)&lt;/font&gt;" style="text;strokeColor=none;fillColor=none;html=1;fontSize=24;fontStyle=1;verticalAlign=middle;align=center;" vertex="1" parent="1">
          <mxGeometry x="110" y="290" width="70" height="40" as="geometry" />
        </mxCell>
        <mxCell id="NOnLoxw8k5Br9pSF4aaw-38" value="" style="rounded=0;whiteSpace=wrap;html=1;fillColor=#fad9d5;strokeColor=#ae4132;" vertex="1" parent="1">
          <mxGeometry x="10" y="360" width="70" height="50" as="geometry" />
        </mxCell>
        <mxCell id="NOnLoxw8k5Br9pSF4aaw-39" value="&lt;font style=&quot;font-size: 14px;&quot;&gt;Task1(0)&lt;/font&gt;" style="text;strokeColor=none;fillColor=none;html=1;fontSize=24;fontStyle=1;verticalAlign=middle;align=center;" vertex="1" parent="1">
          <mxGeometry x="10" y="360" width="70" height="40" as="geometry" />
        </mxCell>
        <mxCell id="NOnLoxw8k5Br9pSF4aaw-40" value="" style="shape=flexArrow;endArrow=classic;html=1;rounded=0;fillColor=#fad9d5;strokeColor=#ae4132;" edge="1" parent="1">
          <mxGeometry width="50" height="50" relative="1" as="geometry">
            <mxPoint x="80" y="380" as="sourcePoint" />
            <mxPoint x="110" y="380.28999999999996" as="targetPoint" />
          </mxGeometry>
        </mxCell>
        <mxCell id="NOnLoxw8k5Br9pSF4aaw-41" value="" style="rounded=0;whiteSpace=wrap;html=1;fillColor=#fad9d5;strokeColor=#ae4132;" vertex="1" parent="1">
          <mxGeometry x="110" y="360" width="70" height="50" as="geometry" />
        </mxCell>
        <mxCell id="NOnLoxw8k5Br9pSF4aaw-42" value="&lt;font style=&quot;font-size: 14px;&quot;&gt;print(0)&lt;/font&gt;" style="text;strokeColor=none;fillColor=none;html=1;fontSize=24;fontStyle=1;verticalAlign=middle;align=center;" vertex="1" parent="1">
          <mxGeometry x="110" y="360" width="70" height="40" as="geometry" />
        </mxCell>
        <mxCell id="NOnLoxw8k5Br9pSF4aaw-49" style="edgeStyle=orthogonalEdgeStyle;rounded=0;orthogonalLoop=1;jettySize=auto;html=1;" edge="1" parent="1" source="NOnLoxw8k5Br9pSF4aaw-43" target="NOnLoxw8k5Br9pSF4aaw-47">
          <mxGeometry relative="1" as="geometry" />
        </mxCell>
        <mxCell id="NOnLoxw8k5Br9pSF4aaw-52" style="edgeStyle=orthogonalEdgeStyle;rounded=0;orthogonalLoop=1;jettySize=auto;html=1;" edge="1" parent="1" source="NOnLoxw8k5Br9pSF4aaw-43" target="NOnLoxw8k5Br9pSF4aaw-48">
          <mxGeometry relative="1" as="geometry" />
        </mxCell>
        <mxCell id="NOnLoxw8k5Br9pSF4aaw-43" value="" style="rounded=0;whiteSpace=wrap;html=1;fillColor=#fad9d5;strokeColor=#ae4132;" vertex="1" parent="1">
          <mxGeometry x="680" y="10" width="80" height="50" as="geometry" />
        </mxCell>
        <mxCell id="NOnLoxw8k5Br9pSF4aaw-44" value="&lt;font style=&quot;font-size: 14px;&quot;&gt;Task2(2, 3)&lt;/font&gt;" style="text;strokeColor=none;fillColor=none;html=1;fontSize=24;fontStyle=1;verticalAlign=middle;align=center;" vertex="1" parent="1">
          <mxGeometry x="680" y="10" width="80" height="40" as="geometry" />
        </mxCell>
        <mxCell id="NOnLoxw8k5Br9pSF4aaw-63" style="edgeStyle=orthogonalEdgeStyle;rounded=0;orthogonalLoop=1;jettySize=auto;html=1;entryX=0.5;entryY=0;entryDx=0;entryDy=0;" edge="1" parent="1" source="NOnLoxw8k5Br9pSF4aaw-47" target="NOnLoxw8k5Br9pSF4aaw-59">
          <mxGeometry relative="1" as="geometry" />
        </mxCell>
        <mxCell id="NOnLoxw8k5Br9pSF4aaw-64" style="edgeStyle=orthogonalEdgeStyle;rounded=0;orthogonalLoop=1;jettySize=auto;html=1;" edge="1" parent="1" source="NOnLoxw8k5Br9pSF4aaw-47" target="NOnLoxw8k5Br9pSF4aaw-62">
          <mxGeometry relative="1" as="geometry" />
        </mxCell>
        <mxCell id="NOnLoxw8k5Br9pSF4aaw-47" value="" style="rounded=0;whiteSpace=wrap;html=1;fillColor=#fad9d5;strokeColor=#ae4132;" vertex="1" parent="1">
          <mxGeometry x="500" y="70" width="80" height="50" as="geometry" />
        </mxCell>
        <mxCell id="NOnLoxw8k5Br9pSF4aaw-92" style="edgeStyle=orthogonalEdgeStyle;rounded=0;orthogonalLoop=1;jettySize=auto;html=1;entryX=0.5;entryY=0;entryDx=0;entryDy=0;" edge="1" parent="1" source="NOnLoxw8k5Br9pSF4aaw-48" target="NOnLoxw8k5Br9pSF4aaw-89">
          <mxGeometry relative="1" as="geometry" />
        </mxCell>
        <mxCell id="NOnLoxw8k5Br9pSF4aaw-48" value="" style="rounded=0;whiteSpace=wrap;html=1;fillColor=#fad9d5;strokeColor=#ae4132;" vertex="1" parent="1">
          <mxGeometry x="860" y="70" width="80" height="50" as="geometry" />
        </mxCell>
        <mxCell id="NOnLoxw8k5Br9pSF4aaw-55" value="&lt;font style=&quot;font-size: 14px;&quot;&gt;Task2(1, 3)&lt;/font&gt;" style="text;strokeColor=none;fillColor=none;html=1;fontSize=24;fontStyle=1;verticalAlign=middle;align=center;" vertex="1" parent="1">
          <mxGeometry x="500" y="70" width="80" height="40" as="geometry" />
        </mxCell>
        <mxCell id="NOnLoxw8k5Br9pSF4aaw-93" style="edgeStyle=orthogonalEdgeStyle;rounded=0;orthogonalLoop=1;jettySize=auto;html=1;entryX=0.5;entryY=0;entryDx=0;entryDy=0;" edge="1" parent="1" source="NOnLoxw8k5Br9pSF4aaw-56" target="NOnLoxw8k5Br9pSF4aaw-91">
          <mxGeometry relative="1" as="geometry" />
        </mxCell>
        <mxCell id="NOnLoxw8k5Br9pSF4aaw-56" value="&lt;font style=&quot;font-size: 14px;&quot;&gt;Task2(2, 2)&lt;/font&gt;" style="text;strokeColor=none;fillColor=none;html=1;fontSize=24;fontStyle=1;verticalAlign=middle;align=center;" vertex="1" parent="1">
          <mxGeometry x="860" y="70" width="80" height="40" as="geometry" />
        </mxCell>
        <mxCell id="NOnLoxw8k5Br9pSF4aaw-68" style="edgeStyle=orthogonalEdgeStyle;rounded=0;orthogonalLoop=1;jettySize=auto;html=1;entryX=0.5;entryY=0;entryDx=0;entryDy=0;" edge="1" parent="1" source="NOnLoxw8k5Br9pSF4aaw-57" target="NOnLoxw8k5Br9pSF4aaw-66">
          <mxGeometry relative="1" as="geometry" />
        </mxCell>
        <mxCell id="NOnLoxw8k5Br9pSF4aaw-69" style="edgeStyle=orthogonalEdgeStyle;rounded=0;orthogonalLoop=1;jettySize=auto;html=1;" edge="1" parent="1" source="NOnLoxw8k5Br9pSF4aaw-57" target="NOnLoxw8k5Br9pSF4aaw-67">
          <mxGeometry relative="1" as="geometry" />
        </mxCell>
        <mxCell id="NOnLoxw8k5Br9pSF4aaw-57" value="" style="rounded=0;whiteSpace=wrap;html=1;fillColor=#fad9d5;strokeColor=#ae4132;" vertex="1" parent="1">
          <mxGeometry x="410" y="150" width="80" height="50" as="geometry" />
        </mxCell>
        <mxCell id="NOnLoxw8k5Br9pSF4aaw-59" value="&lt;font style=&quot;font-size: 14px;&quot;&gt;Task2(1, 2)&lt;/font&gt;" style="text;strokeColor=none;fillColor=none;html=1;fontSize=24;fontStyle=1;verticalAlign=middle;align=center;" vertex="1" parent="1">
          <mxGeometry x="410" y="150" width="80" height="40" as="geometry" />
        </mxCell>
        <mxCell id="NOnLoxw8k5Br9pSF4aaw-62" value="" style="rounded=0;whiteSpace=wrap;html=1;fillColor=#fad9d5;strokeColor=#ae4132;" vertex="1" parent="1">
          <mxGeometry x="590" y="150" width="80" height="50" as="geometry" />
        </mxCell>
        <mxCell id="NOnLoxw8k5Br9pSF4aaw-65" value="&lt;font style=&quot;font-size: 14px;&quot;&gt;Task2(0, 3)&lt;/font&gt;" style="text;strokeColor=none;fillColor=none;html=1;fontSize=24;fontStyle=1;verticalAlign=middle;align=center;" vertex="1" parent="1">
          <mxGeometry x="590" y="150" width="80" height="40" as="geometry" />
        </mxCell>
        <mxCell id="NOnLoxw8k5Br9pSF4aaw-76" style="edgeStyle=orthogonalEdgeStyle;rounded=0;orthogonalLoop=1;jettySize=auto;html=1;" edge="1" parent="1" source="NOnLoxw8k5Br9pSF4aaw-66" target="NOnLoxw8k5Br9pSF4aaw-74">
          <mxGeometry relative="1" as="geometry" />
        </mxCell>
        <mxCell id="NOnLoxw8k5Br9pSF4aaw-77" style="edgeStyle=orthogonalEdgeStyle;rounded=0;orthogonalLoop=1;jettySize=auto;html=1;" edge="1" parent="1" source="NOnLoxw8k5Br9pSF4aaw-66" target="NOnLoxw8k5Br9pSF4aaw-75">
          <mxGeometry relative="1" as="geometry" />
        </mxCell>
        <mxCell id="NOnLoxw8k5Br9pSF4aaw-66" value="" style="rounded=0;whiteSpace=wrap;html=1;fillColor=#fad9d5;strokeColor=#ae4132;" vertex="1" parent="1">
          <mxGeometry x="320" y="240" width="80" height="50" as="geometry" />
        </mxCell>
        <mxCell id="NOnLoxw8k5Br9pSF4aaw-67" value="" style="rounded=0;whiteSpace=wrap;html=1;fillColor=#fad9d5;strokeColor=#ae4132;" vertex="1" parent="1">
          <mxGeometry x="500" y="240" width="80" height="50" as="geometry" />
        </mxCell>
        <mxCell id="NOnLoxw8k5Br9pSF4aaw-70" value="&lt;font style=&quot;font-size: 14px;&quot;&gt;Task2(1, 1)&lt;/font&gt;" style="text;strokeColor=none;fillColor=none;html=1;fontSize=24;fontStyle=1;verticalAlign=middle;align=center;" vertex="1" parent="1">
          <mxGeometry x="320" y="240" width="80" height="40" as="geometry" />
        </mxCell>
        <mxCell id="NOnLoxw8k5Br9pSF4aaw-71" value="&lt;font style=&quot;font-size: 14px;&quot;&gt;Task2(0, 2)&lt;/font&gt;" style="text;strokeColor=none;fillColor=none;html=1;fontSize=24;fontStyle=1;verticalAlign=middle;align=center;" vertex="1" parent="1">
          <mxGeometry x="500" y="240" width="80" height="40" as="geometry" />
        </mxCell>
        <mxCell id="NOnLoxw8k5Br9pSF4aaw-72" value="" style="rounded=0;whiteSpace=wrap;html=1;fillColor=#fad9d5;strokeColor=#ae4132;" vertex="1" parent="1">
          <mxGeometry x="230" y="330" width="80" height="50" as="geometry" />
        </mxCell>
        <mxCell id="NOnLoxw8k5Br9pSF4aaw-73" value="" style="rounded=0;whiteSpace=wrap;html=1;fillColor=#fad9d5;strokeColor=#ae4132;" vertex="1" parent="1">
          <mxGeometry x="410" y="330" width="80" height="50" as="geometry" />
        </mxCell>
        <mxCell id="NOnLoxw8k5Br9pSF4aaw-74" value="&lt;font style=&quot;font-size: 14px;&quot;&gt;Task2(0, 1)&lt;/font&gt;" style="text;strokeColor=none;fillColor=none;html=1;fontSize=24;fontStyle=1;verticalAlign=middle;align=center;" vertex="1" parent="1">
          <mxGeometry x="230" y="330" width="80" height="40" as="geometry" />
        </mxCell>
        <mxCell id="NOnLoxw8k5Br9pSF4aaw-75" value="&lt;font style=&quot;font-size: 14px;&quot;&gt;Task2(1, 0)&lt;/font&gt;" style="text;strokeColor=none;fillColor=none;html=1;fontSize=24;fontStyle=1;verticalAlign=middle;align=center;" vertex="1" parent="1">
          <mxGeometry x="410" y="330" width="80" height="40" as="geometry" />
        </mxCell>
        <mxCell id="NOnLoxw8k5Br9pSF4aaw-98" style="edgeStyle=orthogonalEdgeStyle;rounded=0;orthogonalLoop=1;jettySize=auto;html=1;entryX=0.5;entryY=0;entryDx=0;entryDy=0;" edge="1" parent="1" source="NOnLoxw8k5Br9pSF4aaw-88" target="NOnLoxw8k5Br9pSF4aaw-95">
          <mxGeometry relative="1" as="geometry" />
        </mxCell>
        <mxCell id="NOnLoxw8k5Br9pSF4aaw-88" value="" style="rounded=0;whiteSpace=wrap;html=1;fillColor=#fad9d5;strokeColor=#ae4132;" vertex="1" parent="1">
          <mxGeometry x="770" y="150" width="80" height="50" as="geometry" />
        </mxCell>
        <mxCell id="NOnLoxw8k5Br9pSF4aaw-99" style="edgeStyle=orthogonalEdgeStyle;rounded=0;orthogonalLoop=1;jettySize=auto;html=1;entryX=0.5;entryY=0;entryDx=0;entryDy=0;" edge="1" parent="1" source="NOnLoxw8k5Br9pSF4aaw-89" target="NOnLoxw8k5Br9pSF4aaw-97">
          <mxGeometry relative="1" as="geometry" />
        </mxCell>
        <mxCell id="NOnLoxw8k5Br9pSF4aaw-89" value="&lt;font style=&quot;font-size: 14px;&quot;&gt;Task2(1, 2)&lt;/font&gt;" style="text;strokeColor=none;fillColor=none;html=1;fontSize=24;fontStyle=1;verticalAlign=middle;align=center;" vertex="1" parent="1">
          <mxGeometry x="770" y="150" width="80" height="40" as="geometry" />
        </mxCell>
        <mxCell id="NOnLoxw8k5Br9pSF4aaw-90" value="" style="rounded=0;whiteSpace=wrap;html=1;fillColor=#fad9d5;strokeColor=#ae4132;" vertex="1" parent="1">
          <mxGeometry x="950" y="150" width="80" height="50" as="geometry" />
        </mxCell>
        <mxCell id="NOnLoxw8k5Br9pSF4aaw-91" value="&lt;font style=&quot;font-size: 14px;&quot;&gt;Task2(2, 1)&lt;/font&gt;" style="text;strokeColor=none;fillColor=none;html=1;fontSize=24;fontStyle=1;verticalAlign=middle;align=center;" vertex="1" parent="1">
          <mxGeometry x="950" y="150" width="80" height="40" as="geometry" />
        </mxCell>
        <mxCell id="NOnLoxw8k5Br9pSF4aaw-94" value="" style="rounded=0;whiteSpace=wrap;html=1;fillColor=#fad9d5;strokeColor=#ae4132;" vertex="1" parent="1">
          <mxGeometry x="680" y="240" width="80" height="50" as="geometry" />
        </mxCell>
        <mxCell id="NOnLoxw8k5Br9pSF4aaw-95" value="&lt;font style=&quot;font-size: 14px;&quot;&gt;Task2(0, 2)&lt;/font&gt;" style="text;strokeColor=none;fillColor=none;html=1;fontSize=24;fontStyle=1;verticalAlign=middle;align=center;" vertex="1" parent="1">
          <mxGeometry x="680" y="240" width="80" height="40" as="geometry" />
        </mxCell>
        <mxCell id="NOnLoxw8k5Br9pSF4aaw-105" style="edgeStyle=orthogonalEdgeStyle;rounded=0;orthogonalLoop=1;jettySize=auto;html=1;entryX=0.5;entryY=0;entryDx=0;entryDy=0;" edge="1" parent="1" source="NOnLoxw8k5Br9pSF4aaw-96" target="NOnLoxw8k5Br9pSF4aaw-103">
          <mxGeometry relative="1" as="geometry" />
        </mxCell>
        <mxCell id="NOnLoxw8k5Br9pSF4aaw-96" value="" style="rounded=0;whiteSpace=wrap;html=1;fillColor=#fad9d5;strokeColor=#ae4132;" vertex="1" parent="1">
          <mxGeometry x="860" y="240" width="80" height="50" as="geometry" />
        </mxCell>
        <mxCell id="NOnLoxw8k5Br9pSF4aaw-104" style="edgeStyle=orthogonalEdgeStyle;rounded=0;orthogonalLoop=1;jettySize=auto;html=1;entryX=0.5;entryY=0;entryDx=0;entryDy=0;" edge="1" parent="1" source="NOnLoxw8k5Br9pSF4aaw-97" target="NOnLoxw8k5Br9pSF4aaw-101">
          <mxGeometry relative="1" as="geometry" />
        </mxCell>
        <mxCell id="NOnLoxw8k5Br9pSF4aaw-97" value="&lt;div&gt;&lt;font style=&quot;font-size: 14px;&quot;&gt;Task2(1, 1)&lt;/font&gt;&lt;/div&gt;" style="text;strokeColor=none;fillColor=none;html=1;fontSize=24;fontStyle=1;verticalAlign=middle;align=center;" vertex="1" parent="1">
          <mxGeometry x="860" y="240" width="80" height="40" as="geometry" />
        </mxCell>
        <mxCell id="NOnLoxw8k5Br9pSF4aaw-100" value="" style="rounded=0;whiteSpace=wrap;html=1;fillColor=#fad9d5;strokeColor=#ae4132;" vertex="1" parent="1">
          <mxGeometry x="770" y="330" width="80" height="50" as="geometry" />
        </mxCell>
        <mxCell id="NOnLoxw8k5Br9pSF4aaw-101" value="&lt;font style=&quot;font-size: 14px;&quot;&gt;Task2(1, 0)&lt;/font&gt;" style="text;strokeColor=none;fillColor=none;html=1;fontSize=24;fontStyle=1;verticalAlign=middle;align=center;" vertex="1" parent="1">
          <mxGeometry x="770" y="330" width="80" height="40" as="geometry" />
        </mxCell>
        <mxCell id="NOnLoxw8k5Br9pSF4aaw-102" value="" style="rounded=0;whiteSpace=wrap;html=1;fillColor=#fad9d5;strokeColor=#ae4132;" vertex="1" parent="1">
          <mxGeometry x="950" y="330" width="80" height="50" as="geometry" />
        </mxCell>
        <mxCell id="NOnLoxw8k5Br9pSF4aaw-103" value="&lt;div&gt;&lt;font style=&quot;font-size: 14px;&quot;&gt;Task2(0, 1)&lt;/font&gt;&lt;/div&gt;" style="text;strokeColor=none;fillColor=none;html=1;fontSize=24;fontStyle=1;verticalAlign=middle;align=center;" vertex="1" parent="1">
          <mxGeometry x="950" y="330" width="80" height="40" as="geometry" />
        </mxCell>
      </root>
    </mxGraphModel>
  </diagram>
</mxfile>
